<svg id="Capa_1" enable-background="new 0 0 512 512" height="512" viewBox="0 0 512 512" width="512" xmlns="http://www.w3.org/2000/svg"><g><g><path d="m93.827 418.173-45.715 56.322-43.714 33.107c-5.855-5.855-5.862-15.352 0-21.214l68.216-68.216c5.862-5.861 15.358-5.854 21.213.001z" fill="#6e76e4"/></g><g><path d="m93.827 439.386-68.216 68.216c-2.934 2.934-6.773 4.398-10.606 4.398-3.84-.007-7.679-1.471-10.607-4.398l89.429-89.429c5.855 5.855 5.862 15.351 0 21.213z" fill="#6e76e4"/></g><g><path d="m214.829 297.171-27.061 37.668-34.309 23.703c-5.855-5.855-5.862-15.351 0-21.214l40.157-40.157c5.862-5.862 15.358-5.855 21.213 0z" fill="#6e76e4"/></g><g><path d="m214.829 318.384-40.157 40.157c-2.927 2.927-6.767 4.391-10.607 4.398-3.84-.007-7.679-1.471-10.607-4.398l61.371-61.371c5.855 5.856 5.862 15.352 0 21.214z" fill="#6e76e4"/></g><g><path d="m284.197 227.803-21.214 21.214-97.851-97.851c-5.862-5.862-5.862-15.352 0-21.214 5.855-5.855 15.352-5.862 21.214 0z" fill="#6e76e4"/></g><g><path d="m382.048 346.867c-2.927 2.927-6.767 4.391-10.607 4.398-3.84-.007-7.679-1.471-10.607-4.398l-97.851-97.851 21.214-21.214 97.851 97.851c5.862 5.863 5.855 15.359 0 21.214z" fill="#5f5ace"/></g><path d="m211.944 94.126-88.271-88.271c-7.806-7.807-20.509-7.807-28.315 0l-54.325 54.325c-7.807 7.806-7.807 20.509 0 28.315l88.271 88.271c3.903 3.903 9.03 5.855 14.157 5.855s10.255-1.952 14.157-5.855l54.325-54.325c7.808-7.806 7.808-20.508.001-28.315z" fill="#edf5ff"/><path d="m506.145 388.327-88.274-88.274c-7.806-7.803-20.508-7.801-28.312.003l-54.322 54.322c-3.784 3.782-5.868 8.811-5.868 14.16s2.084 10.379 5.865 14.157l88.271 88.271c3.903 3.903 9.03 5.855 14.157 5.855s10.254-1.952 14.157-5.855l54.325-54.325c7.808-7.805 7.808-20.508.001-28.314z" fill="#d5e8fe"/><path d="m165.762 346.238-38.924 64.852-54.224 28.296-66.547-66.547c-3.91-3.91-6.06-9.115-6.067-14.651 0-5.53 2.157-10.727 6.074-14.644 40.617-40.617 105.127-43.113 148.685-7.517 2.864 2.341 5.636 4.844 8.309 7.517z" fill="#edf5ff"/><path d="m168.456 505.926c-3.917 3.917-9.115 6.074-14.644 6.074-5.537-.007-10.741-2.157-14.651-6.067l-66.547-66.547 93.148-93.148 2.694 2.694c2.673 2.673 5.176 5.445 7.517 8.309 35.596 43.558 33.1 108.068-7.517 148.685z" fill="#d5e8fe"/><path d="m407.448 104.552-17.516 57.586-57.586 17.516-26.941-26.941c-5.855-5.855-5.855-15.359 0-21.214l50.333-50.333c7.806-7.807 20.513-7.814 28.32-.007z" fill="#989eec"/><path d="m430.839 156.257-50.34 50.34c-2.927 2.927-6.767 4.391-10.6 4.391-3.847 0-7.686-1.464-10.614-4.391l-26.941-26.941 75.103-75.103 23.391 23.391c7.807 7.806 7.807 20.506.001 28.313z" fill="#6e76e4"/><path d="m353.558 158.442-56.165 103.778-103.778 56.165-42.115-42.116c-7.817-7.817-7.829-20.484 0-28.313l131.63-131.63c7.807-7.807 20.506-7.807 28.313 0z" fill="#edf5ff"/><path d="m395.674 228.871-131.63 131.629c-7.784 7.784-20.45 7.863-28.313 0l-42.116-42.116 159.943-159.943 42.116 42.116c7.814 7.8 7.807 20.507 0 28.314z" fill="#d5e8fe"/></g></svg>