<svg id="Capa_1" enable-background="new 0 0 512 512" height="512" viewBox="0 0 512 512" width="512" xmlns="http://www.w3.org/2000/svg"><g><path d="m256 73.5 32.5 206-32.5 159c-79.37 0-147.08-50.94-172.13-121.83-3.82-10.79-6.64-22.04-8.37-33.64-1.32-8.82-2-17.85-2-27.03 0-9.1.67-18.12 1.99-27.01l-7.11-16.61 15.45-17.04c5.5-15.61 12.94-30.08 22-43.2l63.67-23.47 38.51-48.79c15.39-4.18 31.5-6.38 47.99-6.38z" fill="#ffd845"/><path d="m436.51 228.99c2.75 18.48 2.65 36.62.04 54.02-1.72 11.58-4.55 22.84-8.39 33.65-24.94 70.37-92.19 121.84-172.16 121.84v-365c79.37 0 147.07 50.93 172.13 121.83l12.99 15.42z" fill="#ffb454"/><g><path d="m256 305.5 17.5 14.5-17.5 15.5c-64.64 0-125.64-6.68-172.13-18.83-.72-.19-1.44-.38-2.16-.57-54.22-14.51-81.71-34.73-81.71-60.1 0-25.77 28.2-46.16 83.83-60.66-1.92 5.44-3.57 10.96-4.96 16.57-1.39 5.62-2.52 11.33-3.38 17.08-33.85 10.9-45.49 22.39-45.49 27.01 0 3.53 8.76 15.29 45.5 27.03 4.27 1.37 8.92 2.74 13.97 4.09 44.29 11.85 103.43 18.38 166.53 18.38z" fill="#ff7c48"/></g><g><path d="m512 256c0 25.37-27.49 45.59-81.71 60.1-.71.19-1.42.37-2.13.56-.01 0-.02.01-.03.01-46.49 12.15-107.49 18.83-172.13 18.83v-30c63.1 0 122.24-6.53 166.53-18.38 5.05-1.35 9.7-2.72 13.97-4.09.02-.01.03-.01.05-.02 36.7-11.73 45.45-23.48 45.45-27.01 0-4.62-11.65-16.11-45.49-27.01h-.01c-1.72-11.61-4.55-22.86-8.37-33.66 55.66 14.5 83.87 34.89 83.87 60.67z" fill="#ff415b"/></g><path d="m227.98 126.34c0 34.62-28.06 62.68-62.67 62.68-20.23 0-38.21-9.58-49.67-24.45-3.67-4.21-6.92-8.35-9.75-12.39 24.64-35.62 60.55-61.02 102.12-72.3 4.11 4.07 7.6 8.39 10.22 12.9 6.18 9.7 9.75 21.22 9.75 33.56z" fill="#ff7c48"/><circle cx="313.128" cy="226" fill="#ff415b" r="45"/></g></svg>